<svg xmlns="http://www.w3.org/2000/svg" fill="none" viewBox="0 0 1101 1100" height="1100" width="1101">
<g clip-path="url(#clip0_2_197)">
<ellipse fill="#FFB5A1" transform="rotate(-18 810.011 556.986)" ry="64.5815" rx="63.8716" cy="556.986" cx="810.011"></ellipse>
<path fill="#C26B6B" d="M840.133 541.85C843.399 541.556 845.808 538.67 845.513 535.404C845.219 532.139 842.334 529.73 839.068 530.024C821.242 531.63 806.631 544.385 796.964 555.524C792.016 561.226 788.097 566.815 785.416 570.971C784.073 573.054 783.032 574.79 782.32 576.018C781.964 576.633 781.69 577.121 781.501 577.462L781.282 577.863L781.22 577.976L781.202 578.01L781.192 578.029C779.657 580.926 780.761 584.52 783.658 586.055C786.554 587.59 790.146 586.486 791.682 583.591L791.688 583.581L791.724 583.514L792.593 581.972C793.222 580.887 794.164 579.313 795.394 577.406C797.86 573.583 801.446 568.475 805.931 563.306C806.926 562.16 807.954 561.024 809.012 559.908C809.107 559.94 809.205 559.973 809.305 560.008C811.055 560.61 813.459 561.581 816.033 563.038C821.225 565.979 826.691 570.649 829.34 577.892C830.466 580.971 833.876 582.554 836.955 581.428C840.034 580.302 841.617 576.893 840.491 573.814C836.54 563.009 828.523 556.467 821.884 552.707C820.811 552.099 819.763 551.557 818.759 551.076C825.297 546.111 832.535 542.534 840.133 541.85Z"></path>
<ellipse fill="#FFB5A1" transform="matrix(-0.951057 -0.309017 -0.309017 0.951057 350.715 515.303)" ry="64.5815" rx="63.8716" cy="64.5815" cx="63.8716"></ellipse>
<path fill="#C26B6B" d="M245.906 541.85C242.64 541.556 240.232 538.67 240.526 535.404C240.82 532.139 243.706 529.73 246.971 530.024C264.797 531.63 279.408 544.385 289.075 555.524C294.024 561.226 297.942 566.815 300.623 570.971C301.967 573.054 303.007 574.79 303.719 576.018C304.075 576.633 304.349 577.121 304.538 577.462L304.758 577.863L304.819 577.976L304.837 578.01L304.847 578.029C306.382 580.926 305.278 584.52 302.381 586.055C299.485 587.59 295.893 586.486 294.357 583.591L294.351 583.581L294.315 583.514L293.446 581.972C292.818 580.887 291.875 579.313 290.645 577.406C288.179 573.583 284.593 568.475 280.108 563.306C279.113 562.16 278.085 561.024 277.027 559.908C276.932 559.94 276.834 559.973 276.734 560.008C274.984 560.61 272.58 561.581 270.006 563.038C264.814 565.979 259.348 570.649 256.699 577.892C255.573 580.971 252.164 582.554 249.084 581.428C246.005 580.302 244.422 576.893 245.548 573.814C249.5 563.009 257.516 556.467 264.155 552.707C265.229 552.099 266.277 551.557 267.28 551.076C260.742 546.111 253.504 542.534 245.906 541.85Z"></path>
<path fill="#101B40" d="M650.5 885C660.5 890 682.436 902.372 710.5 920C742.436 932.372 926.24 1000.49 950.781 1024.46C986.065 1058.92 983.352 1123.71 983.352 1123.71L106.945 1158.18C106.945 1158.18 111.891 1063.77 153.696 1026.89C180.967 1002.82 294.71 945.601 370.5 922.628C400.5 905 435.5 885 435.5 885C455.586 907.536 464.825 947.412 480.5 965C496.826 983.318 524.581 996.528 545.5 1020C565.423 996.528 594.952 983.318 610.5 965C625.429 947.412 635.5 910 650.5 885Z" clip-rule="evenodd" fill-rule="evenodd"></path>
<path fill="#26325B" d="M713.707 921.216L755.5 1020L690.5 1045L755.5 1070L717.94 1134.69L370.86 1148.03L330.5 1070L385.5 1040L315.5 1020L372.279 921.583C401.866 904.22 435.5 885 435.5 885C446.165 896.966 453.771 913.819 460.907 929.63C467.211 943.597 473.148 956.751 480.5 965C488.158 973.592 498.33 981.06 509.131 988.991C521.359 997.968 534.393 1007.54 545.5 1020C556.078 1007.54 569.364 997.968 581.828 988.991C592.838 981.06 603.207 973.592 610.5 965C618.941 955.056 625.829 938.774 632.933 921.981C638.393 909.074 643.981 895.865 650.5 885C660.5 890 682.436 902.372 710.5 920C711.427 920.359 712.499 920.765 713.707 921.216Z"></path>
<path fill="#724831" d="M810.5 1110L830.5 960L915.5 990L900.5 1110H810.5Z"></path>
<path fill="#724831" d="M286.792 1109.55L255.247 961.547L172.823 998.033L197.062 1116.51L286.792 1109.55Z"></path>
<path fill="#FFB5A1" d="M430.5 780C430.5 780 449.348 863.704 430.5 912.2C441.257 934.392 485.175 1008.6 540.5 1010C604.042 1010.76 650.5 920 650.5 920C650.5 920 642.287 861.768 645.5 785C570.421 794.395 430.5 780 430.5 780Z" clip-rule="evenodd" fill-rule="evenodd"></path>
<path fill="#FC9D84" d="M455.5 825C480.501 850 550.5 905 645.5 895C646.289 894.917 647.065 894.827 647.827 894.73C645.795 870.94 643.63 832.252 645.421 786.934C644.851 786.343 644.289 785.769 643.737 785.215C568.253 794.171 430.5 780 430.5 780C430.5 780 432.196 787.531 434.061 799.383C440.782 808.55 448.141 817.641 455.5 825Z"></path>
<path fill="white" d="M495.5 950C455.5 925 435.5 875 435.5 875L420.5 925L455.5 1150H630.5L665.5 920L650.5 875C650.5 875 620.5 925 585.5 950C575.5 985 540.5 1005 540.5 1005C540.5 1005 510.5 990 495.5 950Z"></path>
<path fill="#D8D8D8" d="M651.945 1009.08L595.5 970L540.5 1025C525.5 1015 490.5 970 490.5 970L433.625 1009.38L434.056 1012.15L485.5 995L540.5 1040L595.5 995L651.466 1012.22L651.945 1009.08Z"></path>
<path fill="#E07474" d="M445.5 1000L480.5 975L540.5 1025L600.5 975L635.5 1000L580.5 1035L590.5 1055L570.5 1075L590.5 1140H500.5L510.5 1075L490.5 1050L503 1035L445.5 1000Z"></path>
<path fill="#D85858" d="M454.25 993.75L445.5 1000L503 1035H580.5L635.5 1000L625.845 993.104L570.5 1030H510.5L455.5 995L454.25 993.75Z"></path>
<path fill="#D85858" d="M590.5 1055L560.5 1075H525.5L497.868 1059.21L510.5 1075L508.962 1085H570.5L572.605 1081.84L570.5 1075L590.5 1055Z"></path>
<path fill="#FFCDBC" d="M272.17 448.226C260.474 292.664 383.538 160 539.539 160C692.539 160 814.52 287.821 807.37 440.654L801.457 567.03C794.937 706.382 685.415 818.937 546.293 829.26L536.322 830C400.762 819.226 291.94 711.17 281.744 575.565L272.17 448.226Z" clip-rule="evenodd" fill-rule="evenodd"></path>
<g opacity="0.624907">
<path fill="#FFA2A2" d="M351.772 738.81C321.902 705.656 299.948 665.279 288.933 620.614C302.308 613.903 318.308 610 335.5 610C382.444 610 420.5 639.101 420.5 675C420.5 706.643 390.932 733.005 351.772 738.81Z"></path>
<path fill="#FFA2A2" d="M795.865 610.993C785.892 658.535 763.715 701.596 732.707 736.709C702.43 727.705 680.5 701.243 680.5 670C680.5 631.34 714.079 600 755.5 600C770.361 600 784.212 604.034 795.865 610.993Z"></path>
</g>
<path fill="#A34F4F" d="M500.5 670.748L598.477 660C598.477 660 593.682 721.54 550.335 724.142C506.988 726.744 500.5 670.748 500.5 670.748Z" clip-rule="evenodd" fill-rule="evenodd"></path>
<path fill="#623D3D" d="M640.5 539.887C640.5 523.381 653.881 510 670.387 510C686.893 510 700.274 523.381 700.274 539.887V555.583C700.274 572.089 686.893 585.47 670.387 585.47C653.881 585.47 640.5 572.089 640.5 555.583V539.887Z"></path>
<path fill="#623D3D" d="M380.5 539.887C380.5 523.381 393.881 510 410.387 510C426.893 510 440.274 523.381 440.274 539.887V555.583C440.274 572.089 426.893 585.47 410.387 585.47C393.881 585.47 380.5 572.089 380.5 555.583V539.887Z"></path>
<path stroke-linejoin="round" stroke-linecap="round" stroke-width="10" stroke="#F28080" d="M545.517 510C535.999 541.916 521.247 606.456 538.379 609.293C555.511 612.13 566.931 605.747 570.5 602.201"></path>
<path fill="#623D3D" d="M620.502 478.085C620.502 478.085 684.244 465.363 725.556 462.785C680.345 408.488 620.502 478.085 620.502 478.085Z" clip-rule="evenodd" fill-rule="evenodd"></path>
<path fill="#623D3D" d="M459.33 477.618C459.33 477.618 395.092 467.695 353.707 466.926C396.501 410.704 459.33 477.618 459.33 477.618Z" clip-rule="evenodd" fill-rule="evenodd"></path>
<path fill="#FFB5A1" d="M297.705 312.18C278.062 353.035 268.507 399.507 272.17 448.226L277.328 516.828L280.5 520C302.167 505 341.5 466 345.5 430C365.5 430 385.5 430 400.5 425C463.912 420.122 497.398 394.338 532.834 367.052C533.721 366.369 534.61 365.685 535.5 365C584.917 407.357 636.825 412.337 684.189 416.88C703.918 418.773 722.857 420.589 740.5 425C742.077 426.577 742.659 431.141 743.502 437.748C745.331 452.084 748.387 476.042 765.5 500C780.106 520.449 793.823 532.364 802.757 539.251L807.369 440.654C809.42 396.826 800.851 355.056 783.977 317.766L480.5 235L297.705 312.18Z"></path>
<path fill="#21190C" d="M220.5 260C233.731 258.346 252.214 254.941 272.185 249.533C260.778 264.636 251.507 278.59 245.502 290C208.709 359.907 228.777 402.739 253.895 456.351C262.911 475.595 272.578 496.228 280.499 520C345.499 470 345.5 420 335.5 365C355.5 395 355.5 410 355.5 425C390.501 415 423.702 396.439 450.5 375C454.204 372.038 457.977 368.751 461.723 365.17C447.524 392.356 427.575 415.975 400.5 425C478.621 418.991 516.492 361.823 531.916 313.259C532.973 314.68 534.023 316.094 535.067 317.5C553.457 342.273 570.16 364.773 600.5 385C624.423 400.948 667.332 408.948 702.234 415.455C719.855 418.741 735.436 421.645 745.5 425C750.5 395 740.5 380 720.5 355C760.5 375 775.5 430 775.5 460V460.021C775.5 495 775.5 495.009 800.495 540C800.495 520 842.714 453.999 865.498 425C867.505 422.446 869.305 419.792 870.905 417.045C869.99 423.048 868.243 429.052 865.498 435C901.498 435 905.5 355 861.184 305C830.019 241.619 765.215 171.726 690.5 120C635.817 82.1425 542.166 101.667 530.5 120C519.437 104.788 488.177 93.4772 452.717 99.207C421.868 101.955 360.259 119.385 325.5 175C305.5 207 247.167 245 220.5 260Z"></path>
<path fill="#C4C4C4" d="M566.416 103.111C548.077 107.317 534.491 113.728 530.5 120C522.037 108.363 501.752 99.0081 476.81 97.8201C493.909 106.217 517.571 123.785 510.5 145C528.057 127.442 547.542 112.775 566.416 103.111Z"></path>
<path fill="#120A04" d="M566.416 103.111C548.077 107.317 534.491 113.728 530.5 120C522.037 108.363 501.752 99.0081 476.81 97.8201C493.909 106.217 517.571 123.785 510.5 145C528.057 127.442 547.542 112.775 566.416 103.111Z"></path>
<path fill="#C4C4C4" d="M269.251 250.316C250.41 255.272 233.081 258.427 220.5 260C247.167 248.333 306.5 216 330.5 180C317.794 208.589 289.531 234.866 269.251 250.316Z"></path>
<path fill="#120A04" d="M269.251 250.316C250.41 255.272 233.081 258.427 220.5 260C247.167 248.333 306.5 216 330.5 180C317.794 208.589 289.531 234.866 269.251 250.316Z"></path>
<path fill="#C4C4C4" d="M335.945 367.48C345.486 421.505 344.521 470.753 280.499 520C280.091 518.775 279.678 517.558 279.261 516.35C279.664 515.871 280.082 515.418 280.5 515C280.5 515 300.5 475 305.5 425C310.499 375 305.5 315 305.5 315C313.706 325.258 326.963 345.238 335.945 367.48Z"></path>
<path fill="#120A04" d="M335.945 367.48C345.486 421.505 344.521 470.753 280.499 520C280.091 518.775 279.678 517.558 279.261 516.35C279.664 515.871 280.082 515.418 280.5 515C280.5 515 300.5 475 305.5 425C310.499 375 305.5 315 305.5 315C313.706 325.258 326.963 345.238 335.945 367.48Z"></path>
<path fill="#C4C4C4" d="M355.5 425C355.5 425 355.5 425 355.5 425C361.705 420.036 369.064 415.188 376.934 410.004C411.342 387.337 455.5 358.247 455.5 285C474.746 338.888 467.323 364.132 449.199 385.825C453.794 379.327 457.96 372.374 461.723 365.17C457.976 368.751 454.204 372.038 450.5 375C423.706 396.436 390.511 414.995 355.516 424.996L355.5 425Z"></path>
<path fill="#120A04" d="M355.5 425C355.5 425 355.5 425 355.5 425C361.705 420.036 369.064 415.188 376.934 410.004C411.342 387.337 455.5 358.247 455.5 285C474.746 338.888 467.323 364.132 449.199 385.825C453.794 379.327 457.96 372.374 461.723 365.17C457.976 368.751 454.204 372.038 450.5 375C423.706 396.436 390.511 414.995 355.516 424.996L355.5 425Z"></path>
<path fill="#C4C4C4" d="M735.074 422.087C725.927 419.873 714.582 417.758 702.235 415.456C667.333 408.948 624.422 400.948 600.5 385C570.16 364.773 553.457 342.273 535.067 317.5C534.023 316.094 532.973 314.68 531.915 313.259C531.567 314.356 531.207 315.458 530.835 316.564L530.5 315L520.5 275C540.5 308.333 605.5 371 645.5 375C685.5 379 725.5 406.667 740.5 420L735.074 422.087Z"></path>
<path fill="#120A04" d="M735.074 422.087C725.927 419.873 714.582 417.758 702.235 415.456C667.333 408.948 624.422 400.948 600.5 385C570.16 364.773 553.457 342.273 535.067 317.5C534.023 316.094 532.973 314.68 531.915 313.259C531.567 314.356 531.207 315.458 530.835 316.564L530.5 315L520.5 275C540.5 308.333 605.5 371 645.5 375C685.5 379 725.5 406.667 740.5 420L735.074 422.087Z"></path>
<path fill="#C4C4C4" d="M829.024 478.291C813.53 503.571 800.495 528.887 800.495 540C775.5 495.009 775.5 495 775.5 460.021V460C775.5 430 760.5 375 720.5 355C721.25 355.938 721.987 356.862 722.709 357.773C718.441 355.588 715.5 355 715.5 355C735.5 350 759.5 352 775.5 380C784.667 396.042 788.582 415.236 792.059 432.285C796.168 452.432 799.667 469.584 810.5 475C816.329 477.915 822.778 478.705 829.024 478.291Z"></path>
<path fill="#120A04" d="M829.024 478.291C813.53 503.571 800.495 528.887 800.495 540C775.5 495.009 775.5 495 775.5 460.021V460C775.5 430 760.5 375 720.5 355C721.25 355.938 721.987 356.862 722.709 357.773C718.441 355.588 715.5 355 715.5 355C735.5 350 759.5 352 775.5 380C784.667 396.042 788.582 415.236 792.059 432.285C796.168 452.432 799.667 469.584 810.5 475C816.329 477.915 822.778 478.705 829.024 478.291Z"></path>
<path fill="#C4C4C4" d="M685.358 213.995C677.938 190.04 651.86 177.866 633.857 173.269C635.059 173.435 636.289 173.597 637.562 173.765C645.516 174.813 655.165 176.084 670.502 180C694.07 186.018 707.42 216.337 713.457 236.49C716.43 246.417 723.497 256.609 730.67 266.955C740.484 281.112 750.499 295.556 750.499 310C742.499 294 731.299 284.4 724.579 278.64C722.899 277.2 721.499 276 720.499 275C696.953 251.454 694.716 244.226 685.906 215.763L685.358 213.995Z"></path>
<path fill="#120A04" d="M685.358 213.995C677.938 190.04 651.86 177.866 633.857 173.269C635.059 173.435 636.289 173.597 637.562 173.765C645.516 174.813 655.165 176.084 670.502 180C694.07 186.018 707.42 216.337 713.457 236.49C716.43 246.417 723.497 256.609 730.67 266.955C740.484 281.112 750.499 295.556 750.499 310C742.499 294 731.299 284.4 724.579 278.64C722.899 277.2 721.499 276 720.499 275C696.953 251.454 694.716 244.226 685.906 215.763L685.358 213.995Z"></path>
<path fill="#C4C4C4" d="M370.078 240.766C375.334 224.192 390.188 190.413 407.56 187.885C429.276 184.725 452.805 173.773 460.412 159.115C457.747 185.246 443.457 189.613 423.39 195.746C418.811 197.145 413.932 198.636 408.821 200.499C393.643 206.031 385.084 218.951 377.79 229.96C375.138 233.964 372.653 237.714 370.078 240.766Z"></path>
<path fill="#120A04" d="M370.078 240.766C375.334 224.192 390.188 190.413 407.56 187.885C429.276 184.725 452.805 173.773 460.412 159.115C457.747 185.246 443.457 189.613 423.39 195.746C418.811 197.145 413.932 198.636 408.821 200.499C393.643 206.031 385.084 218.951 377.79 229.96C375.138 233.964 372.653 237.714 370.078 240.766Z"></path>
</g>
<defs>
<clipPath id="clip0_2_197">
<rect transform="translate(0.5)" fill="white" height="1100" width="1100"></rect>
</clipPath>
</defs>
</svg>
