<svg width="400" height="400" viewBox="0 0 400 400" fill="none" xmlns="http://www.w3.org/2000/svg">
  <defs>
    <linearGradient id="heroGradient1" x1="0%" y1="0%" x2="100%" y2="100%">
      <stop offset="0%" style="stop-color:#4285f4;stop-opacity:0.8" />
      <stop offset="50%" style="stop-color:#34a853;stop-opacity:0.6" />
      <stop offset="100%" style="stop-color:#ea4335;stop-opacity:0.4" />
    </linearGradient>
    <linearGradient id="heroGradient2" x1="100%" y1="0%" x2="0%" y2="100%">
      <stop offset="0%" style="stop-color:#fbbc04;stop-opacity:0.6" />
      <stop offset="50%" style="stop-color:#4285f4;stop-opacity:0.4" />
      <stop offset="100%" style="stop-color:#34a853;stop-opacity:0.3" />
    </linearGradient>
    <filter id="blur" x="-50%" y="-50%" width="200%" height="200%">
      <feGaussianBlur in="SourceGraphic" stdDeviation="3"/>
    </filter>
  </defs>
  
  <!-- 背景圆形 -->
  <circle cx="200" cy="200" r="180" fill="url(#heroGradient1)" filter="url(#blur)"/>
  
  <!-- 装饰圆形 -->
  <circle cx="120" cy="120" r="60" fill="url(#heroGradient2)" opacity="0.7"/>
  <circle cx="300" cy="280" r="80" fill="url(#heroGradient1)" opacity="0.5"/>
  <circle cx="320" cy="100" r="40" fill="#4285f4" opacity="0.6"/>
  <circle cx="80" cy="300" r="50" fill="#34a853" opacity="0.5"/>
  
  <!-- 代码符号装饰 -->
  <g transform="translate(150, 150)" fill="white" opacity="0.8">
    <!-- < 符号 -->
    <path d="M20 10 L5 25 L20 40" stroke="white" stroke-width="3" fill="none"/>
    <!-- > 符号 -->
    <path d="M80 10 L95 25 L80 40" stroke="white" stroke-width="3" fill="none"/>
    <!-- {} 符号 -->
    <path d="M35 5 Q30 5 30 10 L30 20 Q30 25 25 25 Q30 25 30 30 L30 40 Q30 45 35 45" stroke="white" stroke-width="2" fill="none"/>
    <path d="M65 5 Q70 5 70 10 L70 20 Q70 25 75 25 Q70 25 70 30 L70 40 Q70 45 65 45" stroke="white" stroke-width="2" fill="none"/>
  </g>
  
  <!-- 浮动的小装饰 -->
  <circle cx="50" cy="80" r="3" fill="#4285f4" opacity="0.8">
    <animate attributeName="cy" values="80;60;80" dur="3s" repeatCount="indefinite"/>
  </circle>
  <circle cx="350" cy="50" r="4" fill="#34a853" opacity="0.7">
    <animate attributeName="cy" values="50;30;50" dur="4s" repeatCount="indefinite"/>
  </circle>
  <circle cx="370" cy="320" r="3" fill="#ea4335" opacity="0.6">
    <animate attributeName="cy" values="320;340;320" dur="3.5s" repeatCount="indefinite"/>
  </circle>
  <circle cx="30" cy="200" r="2" fill="#fbbc04" opacity="0.8">
    <animate attributeName="cx" values="30;50;30" dur="4s" repeatCount="indefinite"/>
  </circle>
</svg>